# xmcd
#
# Track frame offsets:
#	150
#	25122
#	41071
#	66364
#	85943
#	104957
#	124207
#	143730
#	163615
#	176928
#	189664
#	192144
#	209443
#	227576
#	232245
#
# Disc length: 3325 seconds
#
# Revision: 1
# Processed by: cddbd v1.5.1PL0 Copyright (c) Steve Scherf et al.
# Submitted via: audiograbber 1.83.01
#
DISCID=e20cfb0f
DTITLE=Ногу Свело - Идем на восток
DYEAR=2005
DGENRE=Pop
TTITLE0=Эй, мутант!
TTITLE1=Идем на восток
TTITLE2=Я - не последний герой!
TTITLE3=Твоя звезда
TTITLE4=Черная - Рыжая
TTITLE5=Вся раздета
TTITLE6=Мясо в зубах
TTITLE7=Апрель
TTITLE8=Мадам
TTITLE9=Клавесин
TTITLE10=Шах!
TTITLE11=Горная лирическая
TTITLE12=Рекламное место здается!
TTITLE13=СССР
TTITLE14=Идем на восток DJ Flextor
EXTD=
EXTT0=
EXTT1=
EXTT2=
EXTT3=
EXTT4=
EXTT5=
EXTT6=
EXTT7=
EXTT8=
EXTT9=
EXTT10=
EXTT11=
EXTT12=
EXTT13=
EXTT14=
PLAYORDER=
